<?xml version="1.0" encoding="UTF-8" standalone="no"?>
<svg xmlns="http://www.w3.org/2000/svg" width="2000" height="800" viewBox="0 0 500 200">
  <rect width="500" height="200" fill="#ED1D24"/>
  <path fill="#ffffff" d="M28.5 31.2v137.6h31V96.3l22.9 72.5h26.8l22.3-74.4v74.4h31V31.2h-45.2l-21.5 74.4-21.7-74.4H28.5zm180.8 0l-14.5 137.6h29.9l2.6-28.7h27.4l2.6 28.7h29.9L272.7 31.2h-63.4zm18.7 83.8l8.4-71.2 8.4 71.2h-16.8zm120.5-83.8v137.6h49.8c34.1 0 37.1-29.9 37.1-42.8 0-9.4-2.6-32.2-26.8-36.1 19.4-5.2 21.5-21.7 21.5-31.6 0-8.4-1.6-27.1-28.9-27.1h-52.7zm31 25.5h15.8c7.9 0 7.9 8.9 7.9 11.5s-.5 11.5-7.9 11.5h-15.8V56.7zm0 47.3h18.9c10 0 10 11 10 13.6s0 13.6-10 13.6h-18.9v-27.2z"/>
</svg>
